<?xml version="1.0" standalone="no"?>
<!DOCTYPE svg PUBLIC "-//W3C//DTD SVG 20010904//EN"
 "http://www.w3.org/TR/2001/REC-SVG-20010904/DTD/svg10.dtd">
<svg version="1.0" xmlns="http://www.w3.org/2000/svg"
 width="400.000000pt" height="400.000000pt" viewBox="0 0 400.000000 400.000000"
 preserveAspectRatio="xMidYMid meet">
<metadata>
Created by potrace 1.14, written by Peter Selinger 2001-2017
</metadata>
<g transform="translate(0.000000,400.000000) scale(0.100000,-0.100000)"
fill="#000000" stroke="none">
<path d="M0 2000 l0 -2000 750 0 750 0 0 46 c0 43 1 46 23 40 50 -15 139 -27
252 -34 114 -7 120 -8 123 -29 3 -23 4 -23 198 -23 l194 0 0 25 c0 24 3 25 58
25 98 0 285 21 320 36 19 8 36 14 38 14 2 0 4 -22 4 -50 l0 -50 645 0 645 0 0
580 0 581 -35 -34 c-28 -27 -106 -62 -402 -180 -418 -166 -702 -277 -709 -277
-2 0 -4 57 -4 128 -1 142 -9 192 -40 234 l-21 28 43 19 c24 10 79 32 123 49
44 18 125 49 180 71 58 23 94 42 85 45 -19 7 -197 46 -210 46 -5 0 -10 -7 -10
-15 0 -18 3 -18 -95 3 -93 21 -88 7 -53 171 21 99 18 110 -25 111 -26 0 -74
27 -81 45 -3 9 -6 28 -6 41 0 28 11 29 92 10 61 -14 68 -13 68 15 0 28 12 30
95 12 59 -13 79 -22 85 -37 6 -17 59 -32 401 -106 217 -48 405 -90 418 -94 13
-5 41 -24 62 -43 l39 -35 0 1316 0 1316 -2000 0 -2000 0 0 -2000z m3390 520
l0 -620 -295 0 -295 0 0 90 c0 83 -2 93 -25 115 -15 16 -36 25 -54 25 -27 0
-31 4 -42 42 -6 23 -24 68 -40 100 -16 32 -29 66 -29 76 0 10 -14 47 -31 81
-29 57 -30 65 -20 106 20 81 18 85 -44 85 l-55 0 0 51 0 51 -182 -4 c-202 -3
-236 -12 -310 -77 -23 -20 -46 -31 -66 -31 -63 0 -158 -39 -210 -85 -44 -40
-55 -45 -97 -45 l-47 0 7 -42 c4 -24 14 -59 21 -78 14 -32 13 -37 -15 -90 -16
-30 -34 -74 -40 -97 -9 -33 -17 -43 -32 -43 -59 0 -89 -54 -89 -160 l0 -70
-165 0 -165 0 0 620 0 620 1160 0 1160 0 0 -620z m-2360 385 l0 -115 -100 0
-100 0 0 115 0 115 100 0 100 0 0 -115z m-37 -721 l37 -7 0 -78 0 -79 -100 0
-100 0 0 85 0 85 63 0 c34 0 79 -3 100 -6z m1157 -53 c14 -28 15 -27 -41 -86
-43 -46 -50 -57 -39 -70 7 -8 17 -15 23 -15 5 0 41 29 78 65 69 65 94 76 117
53 25 -25 11 -54 -58 -123 -53 -53 -67 -72 -58 -82 15 -19 19 -17 74 32 50 45
80 55 102 33 29 -29 12 -56 -100 -162 l-113 -106 43 0 c73 0 107 -60 62 -108
-20 -21 -29 -22 -178 -22 l-157 0 -185 -74 -185 -74 3 -34 c2 -33 1 -34 -73
-62 -61 -23 -78 -26 -90 -16 -12 10 -45 0 -182 -55 l-168 -67 -45 15 c-25 8
-117 42 -205 76 -88 34 -182 65 -209 69 l-49 7 361 144 c297 119 361 148 357
161 -4 13 13 24 77 49 45 18 84 28 86 23 1 -5 8 -17 15 -26 12 -17 17 -16 77
8 35 14 69 26 76 26 29 0 140 59 150 79 5 12 90 98 189 191 188 177 220 196
245 151z m980 -331 l0 -80 -104 0 -103 0 -6 33 c-3 18 -3 54 0 80 l6 47 103 0
104 0 0 -80z m250 -35 l0 -85 -104 0 -103 0 -7 54 c-3 30 -3 68 0 85 l7 31
103 0 104 0 0 -85z m-500 35 c-36 -12 -70 -12 -70 0 0 6 21 10 48 9 38 -1 42
-2 22 -9z m-951 -354 c9 -7 69 -11 160 -11 l146 0 -23 -22 c-17 -17 -21 -29
-16 -50 16 -67 72 -82 137 -37 59 40 71 31 75 -52 l3 -71 47 -11 c76 -17 150
-52 132 -62 -28 -15 -440 -33 -625 -26 -234 9 -355 17 -355 26 0 10 89 49 145
64 l50 12 3 68 c3 58 6 69 22 73 17 5 20 14 20 69 l0 63 33 -11 c17 -6 38 -16
46 -22z"/>
</g>
</svg>
